{"title":"August Ames - No Pants Dance - TeensLoveHugeCocks","uid":11232019,"size":539338917,"categoryP":"porn","categoryS":"movie_clips","magnet":"?xt=urn:btih:9fda53bc67b0d15a2489b375ab923bc75579e23f&amp;dn=August+Ames+-+No+Pants+Dance+-+TeensLoveHugeCocks&amp;tr=udp%3A%2F%2Ftracker.openbittorrent.com%3A80&amp;tr=udp%3A%2F%2Fopen.demonii.com%3A1337&amp;tr=udp%3A%2F%2Ftracker.coppersurfer.tk%3A6969&amp;tr=udp%3A%2F%2Fexodus.desync.com%3A6969","seeders":3,"leechers":10,"uploader":"athklym","files":-1,"time":1413552260,"description":" &lt;a href=&quot;http://bayimg.com/DacENaAGB&quot; rel=&quot;nofollow&quot; target=&quot;_NEW&quot;&gt;http://bayimg.com/DacENaAGB&lt;/a&gt;\n\nAugust had a fetish for huge dicks. She was looking super hot in that really tight dress. August teased with those big juicy melons she had. She pulled those sweet jugs out in all their glory. August spread her legs and played with that luscious pussy. Chris joined the party and munched on that succulent pussy. August was amazed and excited about his huge cock. She sucked and fucked that dick like it was her last. August got her pussy pounded and man juice busted all over her gorgeous face and tits.\n\nAugust_Ames_No_Pants_Dance_TeensLoveHugeCocks.mp4\nFormat                                   : MPEG-4\nFormat profile                           : Base Media / Version 2\nCodec ID                                 : mp42\nFile size                                : 514 MiB\nDuration                                 : 46mn 42s\nOverall bit rate mode                    : Variable\nOverall bit rate                         : 1 540 Kbps\nEncoded date                             : UTC 2014-04-04 20:57:46\nTagged date                              : UTC 2014-04-04 20:57:46\nWriting library                          : Apple QuickTime\n\nVideo\nID                                       : 1\nFormat                                   : AVC\nFormat/Info                              : Advanced Video Codec\nFormat profile                           : &lt;a class=&quot;__cf_email__&quot; href=&quot;/cdn-cgi/l/email-protection&quot; data-cfemail=&quot;5e133f37301e126d706e&quot;&gt;[email&amp;#160;protected]&lt;/a&gt;&lt;script cf-hash='f9e31' type=&quot;text/javascript&quot;&gt;\n/* &lt;![CDATA[ */!function(){try{var t=&quot;currentScript&quot;in document?document.currentScript:function(){for(var t=document.getElementsByTagName(&quot;script&quot;),e=t.length;e--;)if(t[e].getAttribute(&quot;cf-hash&quot;))return t[e]}();if(t&amp;&amp;t.previousSibling){var e,r,n,i,c=t.previousSibling,a=c.getAttribute(&quot;data-cfemail&quot;);if(a){for(e=&quot;&quot;,r=parseInt(a.substr(0,2),16),n=2;a.length-n;n+=2)i=parseInt(a.substr(n,2),16)^r,e+=String.fromCharCode(i);e=document.createTextNode(e),c.parentNode.replaceChild(e,c)}}}catch(u){}}();/* ]]&gt; */&lt;/script&gt;\nFormat settings, CABAC                   : No\nFormat settings, ReFrames                : 6 frames\nCodec ID                                 : avc1\nCodec ID/Info                            : Advanced Video Coding\nDuration                                 : 46mn 42s\nSource duration                          : 46mn 42s\nBit rate mode                            : Variable\nBit rate                                 : 1 438 Kbps\nMaximum bit rate                         : 1 500 Kbps\nWidth                                    : 768 pixels\nHeight                                   : 432 pixels\nDisplay aspect ratio                     : 16:9\nFrame rate mode                          : Constant\nFrame rate                               : 29.970 fps\nStandard                                 : Component\nColor space                              : YUV\nChroma subsampling                       : 4:2:0\nBit depth                                : 8 bits\nScan type                                : Progressive\nBits/(Pixel*Frame)                       : 0.145\nStream size                              : 480 MiB (93%)\nSource stream size                       : 502 MiB (98%)\nEncoded date                             : UTC 2014-04-04 20:57:46\nTagged date                              : UTC 2014-04-06 14:02:01\n\nAudio\nID                                       : 2\nFormat                                   : AAC\nFormat/Info                              : Advanced Audio Codec\nFormat profile                           : LC\nCodec ID                                 : 40\nDuration                                 : 46mn 42s\nBit rate mode                            : Variable\nBit rate                                 : 32.0 Kbps\nMaximum bit rate                         : 35.6 Kbps\nChannel(s)                               : 1 channel\nChannel positions                        : Front: C\nSampling rate                            : 32.0 KHz\nCompression mode                         : Lossy\nStream size                              : 10.7 MiB (2%)\nEncoded date                             : UTC 2014-04-04 20:57:46\nTagged date                              : UTC 2014-04-06 14:02:01","torrent":{"xt":"urn:btih:9fda53bc67b0d15a2489b375ab923bc75579e23f","amp;dn":"August+Ames+-+No+Pants+Dance+-+TeensLoveHugeCocks","amp;tr":["udp%3A%2F%2Ftracker.openbittorrent.com%3A80","udp%3A%2F%2Fopen.demonii.com%3A1337","udp%3A%2F%2Ftracker.coppersurfer.tk%3A6969","udp%3A%2F%2Fexodus.desync.com%3A6969"],"infoHash":"9fda53bc67b0d15a2489b375ab923bc75579e23f","infoHashBuffer":{"type":"Buffer","data":[159,218,83,188,103,176,209,90,36,137,179,117,171,146,59,199,85,121,226,63]},"announce":[],"urlList":[]}}